<svg id="Layer_1" data-name="Layer 1" xmlns="http://www.w3.org/2000/svg" viewBox="0 0 228 231.75"><defs><style>.cls-1{fill:#e9f65b;}.cls-10,.cls-2,.cls-3,.cls-4,.cls-5,.cls-6{fill:none;stroke-miterlimit:10;}.cls-2,.cls-3{stroke:#e9f65b;}.cls-2{stroke-width:18px;}.cls-3,.cls-4{stroke-width:8px;}.cls-10,.cls-4,.cls-5,.cls-6{stroke:#000;}.cls-5{stroke-width:4px;}.cls-6{stroke-width:2px;}.cls-7{font-size:45.09px;font-family:Futura-Medium, Futura;font-weight:500;}.cls-8{letter-spacing:-0.03em;}.cls-9{letter-spacing:0em;}.cls-10{stroke-width:0.25px;}</style></defs><rect class="cls-1" y="170.75" width="228" height="49"/><rect class="cls-2" x="10" y="9" width="209" height="135.75"/><rect class="cls-3" x="150.64" y="9" width="68.36" height="135.75"/><rect class="cls-3" x="150.64" y="129.61" width="68.36" height="15.14"/><rect class="cls-3" x="150.64" y="114.48" width="68.36" height="15.14"/><rect class="cls-3" x="150.64" y="9" width="68.36" height="20.75"/><rect class="cls-3" x="195" y="129.75" width="24" height="15"/><rect class="cls-4" x="10" y="9" width="209" height="135.75"/><rect class="cls-5" x="150.64" y="9" width="68.36" height="135.75"/><rect class="cls-6" x="150.64" y="129.61" width="68.36" height="15.14"/><rect class="cls-6" x="150.64" y="114.48" width="68.36" height="15.14"/><rect class="cls-6" x="150.64" y="9" width="68.36" height="20.75"/><rect class="cls-6" x="195" y="129.75" width="24" height="15"/><text class="cls-7" transform="translate(6.54 213.94)">TITLEB<tspan class="cls-8" x="128.96" y="0">L</tspan><tspan class="cls-9" x="147.57" y="0">OC</tspan></text><line class="cls-10" x1="224" y1="163.75" x2="224" y2="231.75"/></svg>